<svg id="SvgjsSvg1001" width="288" height="288" xmlns="http://www.w3.org/2000/svg" version="1.1" xmlns:xlink="http://www.w3.org/1999/xlink" xmlns:svgjs="http://svgjs.com/svgjs"><rect id="SvgjsRect1014" width="288" height="288" rx="0" ry="0" fill="#000000" transform="matrix(1,0,0,1,0,0)"></rect><defs id="SvgjsDefs1002"></defs><g id="SvgjsG1008" transform="matrix(1,0,0,1,0,0)"><svg xmlns="http://www.w3.org/2000/svg" enable-background="new 0 0 64 64" viewBox="0 0 64 64" width="288" height="288"><path fill="#58595b" d="M35.6209717,26.7940369h-7.3842773c-5.1468506,0-9.6873779,2.567627-12.4325562,6.4852295h32.2493896
		C45.3083496,29.3616638,40.7678223,26.7940369,35.6209717,26.7940369z" class="color58595b svgShape"></path><ellipse cx="31.929" cy="46.39" fill="#58595b" rx="4.641" ry="2.592" class="color58595b svgShape"></ellipse><ellipse cx="31.929" cy="15.42" fill="#58595b" rx="9.35" ry="9.42" class="color58595b svgShape"></ellipse><path fill="#58595b" d="M59,55.9984436h-6.0088501h-1.5025024L52.682251,35.047821
		c0.003418-0.0644531-0.0234375-0.1367188-0.0717773-0.1875l-0.0004883-0.0009766
		c-0.0478516-0.0498047-0.1176758-0.0800781-0.1865234-0.0800781H11.4342041c-0.0688477,0-0.1386719,0.0302734-0.1865234,0.0800781
		c-0.0498047,0.0527344-0.0756836,0.125-0.0722656,0.2011719l1.1935425,20.9379272h-1.5025024H5c-0.5522461,0-1,0.4472656-1,1
		s0.4477539,1,1,1h5.9804688h1.5025024l0.000061,0.0015259h38.8916016l0.000061-0.0015259h1.5025024H59c0.5522461,0,1-0.4472656,1-1
		S59.5522461,55.9984436,59,55.9984436z M31.928833,50.4814148c-3.4438477,0-6.1411133-1.796875-6.1411133-4.0917969
		s2.6972656-4.0917969,6.1411133-4.0917969s6.1411133,1.796875,6.1411133,4.0917969S35.3726807,50.4814148,31.928833,50.4814148z" class="color58595b svgShape"></path></svg></g></svg>